<svg xmlns="http://www.w3.org/2000/svg" version="1.1" xlink="http://www.w3.org/1999/xlink"
     xmlns:svgjs="http://svgjs.com/svgjs" width="100%" height="100%" preserveAspectRatio="xMidYMid meet"
     viewBox="0 0 300 50.80078125" overflow="visible">
    <defs id="SvgjsDefs38928"></defs>
    <g id="SvgjsG38929" transform="scale(0.6493506493506493)" opacity="1">
        <g id="SvgjsG38930" class="LKOtbPK1_"
           transform="translate(-2.093056245478833, -11.002322539527084) scale(0.9915575468211146)"
           light-content="false" non-strokable="false" fill="#7ed321">
            <path d="M76.553 14.667s-8.448-3.496-30.505-3.571c-12.728.021-20.942 3.064-20.942 3.064s9.658-1.682 24.259-1.601c14.6.082 23.233 1.425 27.188 2.108z"></path>
            <path d="M79.343 16.056s-11.615-2.62-29.171-2.728c-17.553-.108-26.887 1.995-26.887 1.995s-3.836 6.992-6.048 19.708c0 0 5.043-.808 10.165-1.095 0 0 11.811-1.058 22.69-1.085 0 0 19.418-.101 34.624 3.759 0-.001-2.29-13.094-5.373-20.554zm1.913 17.091s-.485.991-3.822.688L65.89 32.333s-.36.19-1.061-.058c0 0-13.801-.888-14.451-.908s-6.627.142-6.627.142-.052 1.043-1.082.34l-.514-.305s-10.284.328-10.952.43c-.667.101-5.137 1.193-7.604 1.173-2.468-.02-3.317-.343-3.641-2.668 0 0 .021-1.741.789-3.56 0 0 2.245-7.071 3.6-9.866 0 0 .283-.509.83-.671 0 0 2.824-1.516 13.131-2.346 0 0 7.374-.343 11.926-.303 4.55.04 21.807.728 27.902 3.963 0 0 .046.202.269.87.223.668 4.65 13.206 2.851 14.581z"></path>
            <path d="M77.12 22.284s-.729-3.052.042-3.988c0 0-5.662-2.176-17.417-3.022-11.756-.846-21.437-.074-21.437-.074s-7.957.378-12.714 2.314c0 0 .862.753.638 1.549l-2.704 12.953s1.507-.029 1.67-.101l.441-1.837s-1.26.44-1.149-.49l1.263-.136s2.533-10.37 2.445-10.946c0 0 1.991 1.738 1.584 3.993l-.731 6.638 2.074-.161s.077-4.801 1.063-5.887c0 0 1.746-2.521 7.723-2.437 0 0 15.32-.218 16.776-.04 0 0-.173 1.07.148 1.511 0 0 .04.372.363.628 0 0-.149 2.711 1.341 2.717 0 0 .638 1.863 1.266 2.587l.187 1.44-.663.396 4.872.92s.792.08.851.358l7.902 1.008s-.535-9.534-.642-9.952c0 0-.271-1.631 1.455-2.588h1.069l2.238 13.05s1.916.128 2.25.01L77.12 22.284zm-8.664 7.903s-.126-.718-2.096-1.214l-.149-1.669s.47-2.13.447-2.521c0 0 .513-.209.351-.575 0 0 .006-.767.058-.963h.149V21.9s3.318.966 3.477 3.022l.506 6.554c-.001.001-2.348-.862-2.743-1.289z"></path>
            <path d="M28.98 29.708l-.237 1.634 2.322-.46.035-1.326zm3.631 1.071l.194-1.223 1.746.007-.176 1.122zm.321-1.925l1.741-.04s.467-2.808.614-2.972c.146-.164.366-.49 2.024-.056l-.053 3.105s.791.1.942.211c.041.071.243.486.243.486l.989.091.035-3.732s.36-.413.906-.378c.546.034 1.168.5 1.264 2.148 0 0 .106 1.925.104 2.348 0 0 .814.201.825.414l1.206-.04s-.717-3.425-.728-3.913c0 0-.092-1.949-1.528-2.32 0 0-5.66-.293-6.582-.009-.92.284-1.334 1.609-2.002 4.657zm4.308 1.091v.597l1.325-.063s-.742-.446-1.325-.534zm21.107.471l-.542.274 2.357.159zm24.83-2.095l.229 1.025s-.014-1.308.357-1.584c0 0 4.657-.229 5.325-.02 0 0 .29.337.29 1.381 0 0-.096 2.359-.223 2.555 0 0-3.95.52-5.197.108l.067.329s1.071.393 5.177-.113c0 0 .262.034.323-.411 0 0 .216-1.989.169-2.562 0 0-.02-1.24-.356-1.476 0 0 .04-.175-1.052-.189 0 0-3.275-.047-4.523.081.001-.001-.465-.027-.586.876zM52.135 42.612l-2.191.49s.667.016 1.112.002c.445-.014.985.067.985.067.586.256.141.509.141.509-.626.435-3.053.428-3.053.428.446.324 1.458.351 1.458.351 2.126-.054 2.188-1.045 2.188-1.045.075-.505-.64-.802-.64-.802z"></path>
            <path d="M49.228 43.481c-.167-.01-.404-.096-.395-.228.01-.131.137-.248.233-.272.217-.163 2.973-.43 2.973-.43-.405-.243-1.452-.293-1.452-.293-2.113.121-2.103 1.102-2.103 1.102.061.48.568.736.568.736l2.618-.584c-.208 0-2.442-.031-2.442-.031z"></path>
            <path d="M85.038 36.478l-.069.532s-14.411-3.755-34.998-3.849c-16.219.174-32.744 2.086-32.744 2.086s-5.275 1.582-6.105 4.777c0 0 3.703.053 6.115 3.235 2.089 2.724 1.673 5.528 1.673 5.528l.311 1.348 9.492.081s16.888-.809 21.965-.674c5.076.135 22.873 1.106 22.873 1.106l7.738.107s.297-1.739.351-1.9c0 0 .148-2.562 2.095-4.746 0 0 2.242-2.52 5.699-2.993 0 0 .213-2.778-4.396-4.638zm-34.451 8.398s-2.376-.04-2.498-1.546c0 0 .172-1.375 2.498-1.466 0 0 2.498-.01 2.609 1.497 0-.001.061 1.425-2.609 1.515zm-40.429-6.592s-2.757 2.124-2.979 2.634c0 0 1.466-.706 2.553-.76-.001 0 .06-1.176.426-1.874zm79.733-.091l1.578 3.428s2.031.243 4.025 2.133c0 0-.72-1.658-5.603-5.561z"></path>
            <path d="M10.563 40.226s-7.59.553-7.712 8.022c0 0-.067 7.348 7.712 7.914 0 0 7.172.364 8.204-7.489 0-.001.343-7.868-8.204-8.447zm0 14.546a6.525 6.525 0 1 1 0-13.05 6.525 6.525 0 0 1 0 13.05zM81.754 50.1c1.032 7.853 8.204 7.489 8.204 7.489 7.779-.565 7.712-7.914 7.712-7.914-.121-7.469-7.712-8.021-7.712-8.021-8.548.579-8.204 8.446-8.204 8.446zm1.68-.425a6.525 6.525 0 1 1 13.05 0 6.525 6.525 0 0 1-13.05 0zm-47.24 9.834h3.156v.495h-3.156zm3.624-1.127h3.072v.652h-3.072zm-10.77 2.104h3.05v.732h-3.05zm7.13-2.104h3.157v.652h-3.157zm.03 3.318h3.157v.653h-3.157zm3.597-5.477h3.085v.627h-3.085zm.013 1.112h3.072v.565h-3.072zm-3.61 3.151h3.157v.732h-3.157zm-.03-3.151h3.157v.565h-3.157zm-.013-1.112h3.17v.627h-3.17zm-3.627 2.159h3.157v.652h-3.157zm0-1.047h3.157v.565h-3.157zm-.013-1.112h3.169v.627h-3.169zm.029 3.286h3.157v.495h-3.157zm.02 3.33h3.15v.801h-3.15zm-.007-2.353h3.157v.732h-3.157zm0 1.214h3.157v.653h-3.157zm3.648 1.139h3.15v.801h-3.15zm11.122-6.616h2.945v.627h-2.945zm.013 1.112h2.933v.565H47.35zm-3.926 3.151h3.458v.732h-3.458zm0 1.214h3.458v.653h-3.458zm-3.591-2.191h3.072v.495h-3.072zm7.531 0h2.933v.495h-2.933zm.012.977h2.933v.732h-2.933zm0 1.214h2.933v.653h-2.933zm.007 1.139h2.926v.801h-2.926zm-.033-4.457h2.933v.652H47.35zm-3.972-2.159h3.473v.627h-3.473zM39.847 61.7h3.072v.653h-3.072zm3.585 1.139h3.45v.801h-3.45zm-3.578 0h3.065v.801h-3.065zm-.007-2.353h3.072v.732h-3.072zm3.562-.977h3.458v.495h-3.458zm-.016-2.174h3.458v.565h-3.458zm0 1.047h3.458v.652h-3.458zm3.944-3.221h2.913v.576h-2.913zm-25.77 6.046h3.423v-.719h-3.312zm3.388-6.047h-2.326l-.132.576h2.458zm7.57.001h3.134v.576h-3.134zm3.134-.967l-3.134-.02v.481h3.134zm-10.704 2.028h-2.548l-.122.627h2.67zm-2.493 7.417h2.528v-.804h-3.423c.42.612.895.804.895.804zm2.493-6.305h-2.751l-.101.565h2.852zm-3.55 5.016h3.585v-.647h-3.473zm3.55-3.945h-2.943l-.101.628h3.044zm0-4.315s-1.901-.224-2.124.565h2.124v-.565zm18.423 1.071h3.434v.576h-3.434zm3.434-.875l-3.434-.035v.409h3.434zm25.527.202h3.131v.167h-3.131zm-22.057-.172l-2.945-.02v.364h2.945zm-14.117.845H39.3v.576h-3.135zm3.135-.932l-3.135-.03v.461H39.3zm3.556.022l-3.051-.022v.431h3.051zM29.048 61.7h3.05v.653h-3.05zm10.757-6.539h3.051v.576h-3.051zm-10.799 0h3.03v.576h-3.03zm0 1.062h3.063v.627h-3.063zm-3.527 4.263h3.05v.731h-3.05zm6.557-6.313l-3.078-.027v.509h3.078zm-3.017 3.162h3.05v.565h-3.05zm.035 5.504h3.044v.801h-3.044zm-7.294-2.846h3.23v-.475h-3.15zm7.259-1.611h3.05v.652h-3.05zm.015 1.127h3.05v.495h-3.05zm-3.584-2.175h3.05v.565h-3.05zm-.012-2.174h3.029v.576h-3.029zm.041 6.54h3.05v.652h-3.05zm2.988-7.561l-3.048-.035v.551h3.048zm-3.029 2.083h3.063v.627h-3.063zm.047 6.616h3.043v.801h-3.043zm-.035-4.457h3.05v.652h-3.05zm.015 1.127h3.05v.495h-3.05zm32.658.001h3.04v.495h-3.04zm10.619-2.174h3.118v.565h-3.118zm0 1.047h3.118v.652h-3.118zm-.013-2.159h3.131v.627h-3.131zm-3.458 4.263h2.997v.732h-2.997zm3.5 1.214h3.116v.653h-3.116zm-3.5 0h2.997v.653h-2.997zm3.486-2.191h3.117v.495h-3.117zm.021 3.33h3.109v.801h-3.109zm-7.08-2.353h3.028v.732h-3.028zm-.04-5.826h3.071v-.218l-3.058-.029zm3.573 1.563h3.009v.627h-3.009zm.046 6.616h2.991v.801h-2.991zM61.698 61.7h3.028v.653h-3.028zm7.073-1.214h3.116v.732h-3.116zm-3.529-3.151h2.998v.565h-2.998zm.016 2.174h2.997v.495h-2.997zm7.081-4.348h3.096v.576h-3.096zm.042 5.325h3.117v.732h-3.117zm6.645-.977h-3.028v.495h3.12zm-.677-3.286h-2.377v.627h2.518zm-6.01 0h3.131v.627h-3.131zm3.659 1.677h2.714l-.131-.565h-2.583zm-.026-3.382v.138h1.377c-.37-.094-1.377-.138-1.377-.138z"></path>
            <path d="M81.702 50.944l-31.53-.403-30.92-.217.033.165s-3.023 12.896-1.518 14.017c0 0 1.665 2.347 3.891 2.535l57.029.485s4.462.567 5.046-4.964l-2.031-11.618zm-4.144 13.125H23.62s-1.78.172-2.396-1.588c0 0 1.065-6.724 1.183-7.129 0 0 .162-1.699 2.487-1.416 0 0 19.172.216 25.278.21 6.107-.008 25.543.149 25.543.149s2.424.04 2.563.865c0 0 1.3 5.894 1.279 6.723 0 .001.248 1.923-1.999 2.186z"></path>
            <path d="M76.033 63.64h2.387c.602-.247.803-.801.803-.801h-3.189v.801zm-.02-1.94v.653h3.356c.057-.192 0-.653 0-.653h-3.356zm2.088-6.539h-2.129v.576h2.27zm-2.103 3.873h2.938l-.127-.652h-2.811zm-3.63.475h3.116v.495h-3.116zm.021 3.33h3.109v.801h-3.109zm-.036-5.504h3.117v.565h-3.117zm0 1.047h3.117v.652h-3.117zm3.66 2.837h3.307l-.122-.733h-3.185zm-3.632.481h3.117v.653h-3.117zm-10.676 1.139h3.021v.801h-3.021zm3.537-4.457h2.998v.652h-2.998zm-14.441-1.047h3.106v.565h-3.106zm-.013-2.174h3.085v.576h-3.085zm0 1.062h3.119v.627h-3.119zm3.085-1.877l-3.085-.03v.344h3.085zm-3.072 4.036h3.106v.652h-3.106zm.029 3.318h3.106v.653H50.83zm-.013-2.191h3.105v.495h-3.105zm3.558-4.348h3.189v.576h-3.189zm-3.538 7.678h3.099v.801h-3.099zm17.892-7.678h3.096v.576h-3.096zm-3.498 0h2.976v.576h-2.976zm2.976-.699l-2.976-.02v.218h2.976zm3.618.031l-3.096-.025v.187h3.096zm-13.729-.107h3.053v.274h-3.053zm0 .775h3.053v.576h-3.053zm-3.721-.805h3.226v.304h-3.226zm7.283.805h3.006v.576h-3.006zm-7.24 6.539h3.212v.653h-3.212zm3.719-1.214h3.04v.732h-3.04zm0 1.214h3.04v.653h-3.04zm.006 1.139h3.034v.801h-3.034zm-.035-4.457h3.04v.652h-3.04zm0-1.047h3.04v.565h-3.04zm3.563 1.047h3.026v.652h-3.026zm0-1.047h3.026v.565h-3.026zm-.013-1.112h3.039v.627h-3.039zm-7.232 6.616h3.204v.801h-3.204zm-.037-5.504h3.212v.565h-3.212zm.014 2.174h3.213v.495h-3.213zm-.014-1.127h3.212v.652h-3.212zm-.014-2.159h3.226v.627h-3.226zm-3.545 4.263h3.106v.732H50.83zm3.588 0h3.212v.732h-3.212zm3.678-4.263h3.053v.627h-3.053zm3.59 3.286h3.026v.495h-3.026z"></path>
            <path d="M82.206 52.656s1.271 4.68 7.228 5.244l-.267 4.405s-3.744-.051-3.884.913c-.138.964-.514 2.407.652 2.798 0 0 1.193.297 2.998.188l-.391 5.057s-24.496.19-37.865 0a22791.77 22791.77 0 0 1-39.062-.619l-.191-5.367s3.951.544 3.951-1.062l-.063-1.951s.076-.919-4.009-.889l-.149-4.943s6.701-.249 7.712-6.983l.237 1.031s-2.381 10.507-1.957 12.847c0 0 .526 3.534 4.611 3.959l56.73.539s5.227.271 5.415-5.23l-1.696-9.937zm7.505 5.258l-.339 4.392s3.593-.279 3.714 1.136l-.025 1.754s-.295.712-1.497.821a71.888 71.888 0 0 1-2.454.173l-.37 5.059s6.926-.122 7.178-.183c0 0 1.408-16.522 1.274-17.947-.001-.001-1.62 4.457-7.481 4.795zM3.66 52.319s2.083 4.045 7.28 4.125l.101 4.93s-3.524-.288-3.524 1.138v1.699s-.2 1.06 3.639 1.064l.199 5.437s-5.703-.168-6.699-.402c0 0-.774-6.303-.996-17.991zm3.923 23.716s-.135 2.996.714 3.303c0 0 1.119.43 5.272.472 0 0 1.617 0 2.089.403 0 0 2.133.766 4.019 1.226 0 0 7.387 2.375 30.415 2.752 0 0 18.022-.306 20.798-.677 0 0 13.097-1.911 14.148-3.126 0 0 6.39-.02 7.32-.565 0 0 .838-.216.61-3.021l-24.326-.104-.026 3.664s-.162 1.455-2.021 1.752H50.092l-15.747.028s-2.022.067-2.103-2.029l-.026-3.392c0 .001-20.44-.535-24.633-.686z"></path>
            <path d="M34.453 74.429s-1.955-.215-1.928 2.293v3.392s.216 1.609 1.834 1.663l32.263-.025s1.545.04 1.698-1.861V76.17s-.121-1.655-1.752-1.745l-32.115.004zM85.2 80.55s4.964.102 6.582-.343c1.001-.132 1.227-.869 1.227-.869s-1.072 5.985-1.581 7.846c-.509 1.859-1.636 2.508-1.636 2.508s-3.036.282-4.431.306c-1.396.022-2.913-.468-3.707-1.068-.797-.6-.959-6.924-.959-6.924s4.07-.839 4.505-1.456zM7.221 76.132h.139s-.01 2.853.769 3.296c0 0 .789.425 2.609.455 0 0 4.338.01 4.752.436 0 0 2.201.895 4.18 1.282 0 0-.268 5.955-.92 6.639-.652.685-2.013 1.014-3.928 1.099-1.914.084-4.414.048-4.842-.804s-1.925-1.863-2.759-12.403zm18.414-46.13l-.016.16m55.152 1.044c-.891-5.966-3.579-13.064-3.579-13.064-6.563-2.427-17.757-2.965-17.757-2.965-6.733-.877-19.481-.183-19.481-.183-10.556.525-14.675 2.5-14.675 2.5-.216.23-.587 1.214-.587 1.214-1.051 2.629-3.64 11.204-3.64 11.204-.027 1.78.31 1.982 1.713 2.225 1.402.243 7.711-1.051 8.385-1.159.674-.108 7.604-.432 7.604-.432-1.793-1.308-5.676-1.105-5.676-1.105-1.646-.132-7.9.606-7.9.606-.62.148-.607-.377-.607-.377l7.739-.688c4.89-.184 5.663.121 5.797.162s.31.54.31.54c4.503.444 4.099.89 4.099.89s6.943-.216 8.063-.229c1.118-.014 8.803.553 9.168.566.363.014.515-.025.403-.148-6.849-2.13-15.544-.93-15.544-.93s-1.093-.243-.364-.499c3.802-.513 11.501-.243 11.501-.243 3.248.142 2.938.795 2.938.795l5.567 1.039c.647.067.863.392.863.392.971.215 8.661 1.051 8.661 1.051 4.071.715 5.893.351 5.893.351s.728-.067.92-.317c.191-.252.186-1.196.186-1.196zm-.421 1.232s-2.693.406-6.092-.201l-9.079-1.152s-.217-.337-1.375-.486l-4.881-.903s-.404-.647-2.912-.769c0 0-7.846-.134-8.629-.013l-3.195.175s-.728.432-.175.688c0 0 .472.243.634.216.162-.027 5.28-.427 7.954-.283 2.674.144 6.566.984 6.566.984s-7.133-.499-8.454-.54c-1.321-.04-8.062.216-8.062.216s-1.065-.796-4.152-.89c0 0-.216-.525-.62-.58 0 0-3.829-.634-13.451.614 0 0-.189.773.576.723 0 0 6.788-.832 8.051-.62 0 0 3.078-.165 5.229.799l-7.16.384s-5.77 1.281-8.156 1.133c0 0-2.157.351-1.752-2.076 0 0 2.933-9.682 3.823-11.38 0 0 .333-.984 1.607-1.297 0 0 6.165-2.181 19.444-2.181 0 0 8.615-.114 15.855.593 7.037.647 13.205 1.82 15.106 2.771 0 .001 4.355 12.841 3.3 14.075zM75.235 14.29s4.463.85 4.767 1.004c.304.155.235.499.209.621-.027.121-.302.466-.788.313l-.338-.055.033-.166.287.062s.526.162.66-.202c0 0 .071-.34-.141-.432 0 0-.497-.208-4.712-1.002l.023-.143zm-48.526-.372l-3.423.66c-.162.03-.521.081-.506.395.016.313.417.371.504.352s3.671-.63 3.671-.63l-.025.253-3.728.53s-.474.021-.575-.49c-.046-.505.647-.571.647-.571l3.388-.647.047.148z"></path>
            <path d="M96.511 70.136c.061.1-.035.941-.049 1.023l-.962.188h-.917c-2.845.27-44.043.278-44.043.278l-17.966-.278c-12.16-.159-26.892-.635-26.892-.635s-1.791-.19-1.841-.398c-.05-.209-.241-1.042.042-1.312 0 0-1.759 1.564-1.772 3.523-.014 1.959 1.174 2.742 1.174 2.742s2.687.388 4.493.515l24.336.663c.223-2.306 2.123-2.205 2.123-2.205s30.031-.08 32.336-.04c2.307.04 2.104 2.266 2.104 2.266l23.749.106s3.193.02 3.676-.008 1.011-.303 1.011-.303c1.174-.87 1.188-2.519 1.188-2.519.061-2.099-1.779-3.56-1.79-3.606zm-.796 6.289l-26.856-.135c-.094-2.346-2.373-2.292-2.373-2.292l-32.317.095c-2.063.135-2.225 2.197-2.225 2.197s-23.441-.613-24.291-.663c-.849-.052-4.307-.506-4.307-.506s-1.102-1.052-1.072-2.641c.031-1.587 1.284-2.906 1.284-2.906-.027.14.122.805.122.805.276.498 3.154.546 3.154.546 2.265.141 18.585.484 18.585.484l24.531.405 18.16-.021 26.823-.276c.77 0 1.563-.161 1.645-.229.081-.067.122-.729.122-.729 1.415 1.268 1.441 3.102 1.441 3.102-.079 3.061-2.426 2.764-2.426 2.764z"></path>
        </g>
        <g id="SvgjsG38931" class="text" transform="translate(298.430302457387, 62.879358855341955) scale(1)"
           light-content="false" fill="#7ed321">
            <path d="M-152.89 0L-149.79 -8.61L-132.58 -8.61L-129.48 0L-116.05 0L-134.3 -48.21L-148.07 -48.21L-166.32 0ZM-146.69 -17.56L-141.18 -33.75L-135.67 -17.56Z M-84.02 -36.5L-91.94 -11.71L-99.86 -36.5L-112.6 -36.5L-98.83 0L-85.05 0L-71.28 -36.5Z M-36.16 0L-36.16 -8.95L-45.11 -8.95C-45.8 -8.95 -46.37 -9.18 -46.83 -9.64C-47.29 -10.1 -47.52 -10.67 -47.52 -11.36L-47.52 -27.2L-38.91 -27.2L-38.91 -36.5L-47.52 -36.5L-47.52 -44.77L-58.2 -44.77L-59.57 -36.5L-63.7 -36.5L-63.7 -27.2L-59.57 -27.2L-59.57 -9.64C-59.57 -6.52 -58.63 -4.02 -56.75 -2.13C-54.87 -0.25 -52.36 0.69 -49.24 0.69C-44.97 0.69 -40.61 0.46 -36.16 0Z M11.36 -10.33L11.36 -26.17C11.36 -29.61 10.39 -32.31 8.44 -34.26C6.49 -36.21 3.79 -37.19 0.34 -37.19L-15.5 -37.19C-18.94 -37.19 -21.64 -36.21 -23.59 -34.26C-25.54 -32.31 -26.52 -29.61 -26.52 -26.17L-26.52 -10.33C-26.52 -6.89 -25.54 -4.19 -23.59 -2.24C-21.64 -0.29 -18.94 0.69 -15.5 0.69L0.34 0.69C3.79 0.69 6.49 -0.29 8.44 -2.24C10.39 -4.19 11.36 -6.89 11.36 -10.33ZM-0.69 -25.14L-0.69 -11.36C-0.69 -9.53 -1.61 -8.61 -3.44 -8.61L-11.71 -8.61C-13.54 -8.61 -14.46 -9.53 -14.46 -11.36L-14.46 -25.14C-14.46 -26.97 -13.54 -27.89 -11.71 -27.89L-3.44 -27.89C-1.61 -27.89 -0.69 -26.97 -0.69 -25.14Z M52 -48.21L25.14 -48.21L25.14 0L52 0C57.19 0 61.12 -1.34 63.81 -4.03C66.49 -6.71 67.84 -10.65 67.84 -15.84L67.84 -32.37C67.84 -37.56 66.49 -41.49 63.81 -44.18C61.12 -46.87 57.19 -48.21 52 -48.21ZM55.44 -32.37L55.44 -15.84C55.44 -11.71 53.37 -9.64 49.24 -9.64L37.53 -9.64L37.53 -38.57L49.24 -38.57C53.37 -38.57 55.44 -36.5 55.44 -32.37Z M118.11 -10.33L118.11 -26.17C118.11 -29.61 117.14 -32.31 115.19 -34.26C113.23 -36.21 110.54 -37.19 107.09 -37.19L91.25 -37.19C87.81 -37.19 85.11 -36.21 83.16 -34.26C81.21 -32.31 80.23 -29.61 80.23 -26.17L80.23 -10.33C80.23 -6.89 81.21 -4.19 83.16 -2.24C85.11 -0.29 87.81 0.69 91.25 0.69L107.09 0.69C110.54 0.69 113.23 -0.29 115.19 -2.24C117.14 -4.19 118.11 -6.89 118.11 -10.33ZM106.06 -25.14L106.06 -11.36C106.06 -9.53 105.14 -8.61 103.31 -8.61L95.04 -8.61C93.2 -8.61 92.29 -9.53 92.29 -11.36L92.29 -25.14C92.29 -26.97 93.2 -27.89 95.04 -27.89L103.31 -27.89C105.14 -27.89 106.06 -26.97 106.06 -25.14Z M163.57 -0.69L163.57 -9.64C155.3 -8.95 149.1 -8.61 144.97 -8.61C144.28 -8.61 143.71 -8.84 143.25 -9.3C142.79 -9.76 142.56 -10.33 142.56 -11.02L142.56 -24.45C142.56 -26.29 143.48 -27.2 145.32 -27.2L163.57 -27.2L163.57 -36.5L141.53 -36.5C138.08 -36.5 135.39 -35.53 133.44 -33.57C131.48 -31.62 130.51 -28.93 130.51 -25.48L130.51 -9.64C130.51 -6.52 131.45 -4.02 133.33 -2.13C135.22 -0.25 137.72 0.69 140.84 0.69C147.41 0.69 154.98 0.23 163.57 -0.69Z"></path>
        </g>
    </g>
</svg>